<svg width="25" height="36" viewBox="0 0 25 36" fill="none" xmlns="http://www.w3.org/2000/svg">
<g id="1740905809106 1" clip-path="url(#clip0_232_185)">
<g id="Group">
<path id="Vector" d="M9.83073 0.232536C9.4835 0.451916 2.15712 6.78757 1.51475 7.41937C0.907115 8.02486 0.585935 8.51627 0.264754 9.32358L0.0216986 9.93784L-0.00434306 16.4753C-0.0217042 21.1349 -0.00434306 23.0742 0.0651014 23.2409C0.273435 23.7411 0.264754 23.7324 7.05295 26.8388L9.13628 27.7865L9.17968 30.7086L9.22309 33.6219L10.612 34.2888C14.1623 35.9737 14.1276 35.9561 14.5616 35.9561C15.0564 35.9561 14.6311 36.2896 19.9089 31.7265C21.9575 29.9627 23.7717 28.3218 23.9453 28.0848C24.3099 27.6022 24.4922 27.26 24.7439 26.5755C24.9262 26.0929 24.9349 25.97 24.9609 19.6344C24.9783 15.1503 24.9609 13.0881 24.8915 12.86C24.77 12.43 24.4835 12.2281 23.112 11.6051C22.4957 11.3155 20.5946 10.4468 18.9019 9.66581L15.8203 8.24424L15.7769 5.32212L15.7335 2.4L14.171 1.66288C10.447 -0.0833664 10.3689 -0.109692 9.83073 0.232536ZM15.6901 21.9335C15.612 22.2143 15.1519 22.6442 12.4696 24.9609C10.7509 26.4439 9.30121 27.6724 9.25781 27.6899C9.21441 27.7075 9.17968 25.0048 9.17968 20.977C9.17968 14.7203 9.18836 14.2113 9.33593 13.9569C9.41406 13.7989 9.91753 13.3075 10.4384 12.8512C10.9679 12.4037 12.2092 11.3243 13.2075 10.4556C14.2057 9.59561 15.1779 8.7532 15.3776 8.59524L15.7335 8.29689L15.7595 14.9572C15.7769 19.4852 15.7509 21.7141 15.6901 21.9335Z" fill="#2563EB"/>
</g>
</g>
<defs>
<clipPath id="clip0_232_185">
<rect width="25" height="36" fill="white"/>
</clipPath>
</defs>
</svg>
