<svg width="36" height="36" viewBox="0 0 36 36" fill="none" xmlns="http://www.w3.org/2000/svg">
<path d="M18.0348 10.6519C19.2752 10.6519 20.2871 11.6637 20.2871 12.904C20.2871 14.1444 19.2752 15.1562 18.0348 15.1562C16.7946 15.1562 15.7827 14.1444 15.7827 12.904C15.75 11.6637 16.7619 10.6519 18.0348 10.6519Z" fill="#222225"/>
<path fill-rule="evenodd" clip-rule="evenodd" d="M18 0C8.05888 0 0 8.05888 0 18C0 27.9411 8.05888 36 18 36C27.9411 36 36 27.9411 36 18C36 8.05888 27.9411 0 18 0ZM18.0348 18.3549C21.0378 18.3549 23.4858 15.9069 23.4858 12.904C23.4858 9.90114 21.0378 7.45312 18.0348 7.45312C14.9993 7.45312 12.5513 9.90114 12.5513 12.904C12.5513 15.9069 14.9993 18.3549 18.0348 18.3549ZM20.2218 22.8267C21.3315 22.5655 22.4087 22.1412 23.3879 21.5211C24.1386 21.0641 24.3671 20.0523 23.8775 19.3016C23.4206 18.5508 22.4087 18.3223 21.6579 18.812C19.4384 20.2155 16.5335 20.2155 14.3139 18.812C13.5632 18.3551 12.584 18.5508 12.0944 19.3016C11.6701 20.0523 11.8985 21.0315 12.6493 21.4884C13.6285 22.1086 14.7056 22.5329 15.8154 22.794L12.7798 25.8296C12.1597 26.4498 12.1597 27.4616 12.7798 28.0818C13.1062 28.4082 13.4979 28.5387 13.9222 28.5387C14.3466 28.5387 14.7382 28.3755 15.0647 28.0818L18.0675 25.0788L21.0705 28.0818C21.6906 28.7019 22.7025 28.7019 23.3226 28.0818C23.9427 27.4616 23.9427 26.4498 23.3226 25.8296L20.2218 22.8267Z" fill="#222225"/>
</svg>
