<svg width="36" height="36" viewBox="0 0 36 36" fill="none" xmlns="http://www.w3.org/2000/svg">
<path fill-rule="evenodd" clip-rule="evenodd" d="M18 36C8.05888 36 0 27.9411 0 18C0 8.05888 8.05888 0 18 0C27.9411 0 36 8.05888 36 18C36 27.9411 27.9411 36 18 36ZM18.7783 13.5083C17.1662 14.1788 13.9442 15.5667 9.11241 17.6718C8.32779 17.9838 7.91678 18.2891 7.87936 18.5876C7.81613 19.092 8.44779 19.2906 9.30795 19.5611C9.42496 19.5979 9.54619 19.636 9.67048 19.6764C10.5167 19.9515 11.6551 20.2733 12.2469 20.2861C12.7837 20.2977 13.3829 20.0764 14.0444 19.6221C18.5589 16.5747 20.8893 15.0344 21.0356 15.0012C21.1388 14.9777 21.2819 14.9483 21.3788 15.0344C21.4757 15.1206 21.4662 15.2837 21.4559 15.3275C21.3933 15.5942 18.9138 17.8994 17.6307 19.0923C17.2307 19.4642 16.9469 19.728 16.8889 19.7883C16.759 19.9232 16.6265 20.0509 16.4993 20.1736C15.7131 20.9315 15.1235 21.4999 16.5319 22.428C17.2087 22.874 17.7503 23.2429 18.2907 23.6108C18.8807 24.0127 19.4693 24.4135 20.2308 24.9126C20.4248 25.0398 20.6101 25.1719 20.7906 25.3006C21.4773 25.7901 22.0942 26.23 22.8565 26.1598C23.2994 26.1191 23.7568 25.7026 23.9892 24.4606C24.5383 21.5252 25.6176 15.1651 25.867 12.5443C25.8889 12.3147 25.8614 12.0208 25.8393 11.8918C25.8172 11.7628 25.7711 11.579 25.6034 11.4429C25.4048 11.2818 25.0982 11.2478 24.9611 11.2501C24.3377 11.2612 23.3813 11.5938 18.7783 13.5083Z" fill="#222225"/>
</svg>
