<svg width="36" height="36" viewBox="0 0 36 36" fill="none" xmlns="http://www.w3.org/2000/svg">
<path d="M12.036 14.478C12.132 19.158 14.472 21.966 18.576 21.966H18.816V19.29C20.322 19.44 21.462 20.544 21.918 21.966H24.048C23.8295 21.1579 23.4423 20.4054 22.9117 19.758C22.3811 19.1106 21.7194 18.583 20.97 18.21C21.6415 17.8011 22.2214 17.2581 22.6736 16.6149C23.1258 15.9717 23.4405 15.2422 23.598 14.472H21.666C21.246 15.96 19.998 17.31 18.816 17.436V14.478H16.878V19.662C15.678 19.362 14.166 17.91 14.1 14.478H12.036Z" fill="#222225"/>
<path fill-rule="evenodd" clip-rule="evenodd" d="M18 0C27.9411 0 36 8.05888 36 18C36 27.9411 27.9411 36 18 36C8.05888 36 0 27.9411 0 18C0 8.05888 8.05888 0 18 0ZM9 17.64C9 13.566 9 11.532 10.26 10.26C11.538 9 13.572 9 17.64 9H18.36C22.434 9 24.468 9 25.74 10.26C27 11.538 27 13.572 27 17.64V18.36C27 22.434 27 24.468 25.74 25.74C24.462 27 22.428 27 18.36 27H17.64C13.566 27 11.532 27 10.26 25.74C9 24.462 9 22.428 9 18.36V17.64Z" fill="#222225"/>
</svg>
