<svg width="28" height="28" viewBox="0 0 28 28" fill="none" xmlns="http://www.w3.org/2000/svg">
<g clip-path="url(#clip0_377_1348)">
<path d="M8.16666 5.24992C6.23367 5.24992 4.66666 6.81693 4.66666 8.74992C4.66666 9.41336 4.85125 10.0337 5.17188 10.5623C3.55514 10.8716 2.33333 12.2931 2.33333 13.9999C2.33333 15.7068 3.55514 17.1282 5.17188 17.4375M8.16666 5.24992C8.16666 3.63909 9.4725 2.33325 11.0833 2.33325C12.6941 2.33325 14 3.63909 14 5.24992V22.7499C14 24.3607 12.6941 25.6666 11.0833 25.6666C9.4725 25.6666 8.16666 24.3607 8.16666 22.7499C6.23367 22.7499 4.66666 21.183 4.66666 19.2499C4.66666 18.5864 4.85125 17.9661 5.17188 17.4375M8.16666 5.24992C8.16666 6.20415 8.62491 7.05135 9.33333 7.58346M5.17188 17.4375C5.58772 16.7519 6.23241 16.2203 7 15.9491" stroke="#2563EB" stroke-width="3" stroke-linecap="round" stroke-linejoin="round"/>
<path d="M19.8333 22.7499C21.7664 22.7499 23.3333 21.1829 23.3333 19.2499C23.3333 18.5865 23.1488 17.9661 22.8282 17.4375C24.4448 17.1282 25.6667 15.7068 25.6667 13.9999C25.6667 12.2931 24.4448 10.8716 22.8282 10.5623M19.8333 22.7499C19.8333 24.3608 18.5275 25.6666 16.9167 25.6666C15.3059 25.6666 14 24.3608 14 22.7499V5.24992C14 3.63909 15.3059 2.33325 16.9167 2.33325C18.5275 2.33325 19.8333 3.63909 19.8333 5.24992C21.7664 5.24992 23.3333 6.81692 23.3333 8.74992C23.3333 9.41336 23.1488 10.0337 22.8282 10.5623M19.8333 22.7499C19.8333 21.7957 19.3751 20.9485 18.6667 20.4164M22.8282 10.5623C22.4122 11.248 21.7676 11.7794 21 12.0508" stroke="#2563EB" stroke-width="3" stroke-linecap="round" stroke-linejoin="round"/>
</g>
<defs>
<clipPath id="clip0_377_1348">
<rect width="28" height="28" fill="white"/>
</clipPath>
</defs>
</svg>
