<svg width="25" height="24" viewBox="0 0 25 24" fill="none" xmlns="http://www.w3.org/2000/svg">
<path d="M2.75 6.75C2.75 15.0343 9.46573 21.75 17.75 21.75H20C21.2426 21.75 22.25 20.7426 22.25 19.5V18.1284C22.25 17.6121 21.8987 17.1622 21.3979 17.037L16.9747 15.9312C16.5355 15.8214 16.0734 15.9855 15.8018 16.3476L14.8316 17.6412C14.55 18.0166 14.063 18.1827 13.6223 18.0212C10.3154 16.8098 7.69015 14.1846 6.47876 10.8777C6.31734 10.437 6.48336 9.94998 6.8588 9.6684L8.15242 8.69818C8.51453 8.4266 8.67861 7.96445 8.56883 7.52533L7.46304 3.10215C7.33783 2.60133 6.88785 2.25 6.37163 2.25H5C3.75736 2.25 2.75 3.25736 2.75 4.5V6.75Z" fill="#F1F1F1" stroke="#F1F1F1" stroke-width="1.5" stroke-linecap="round" stroke-linejoin="round"/>
</svg>
