<svg width="28" height="28" viewBox="0 0 28 28" fill="none" xmlns="http://www.w3.org/2000/svg">
<path opacity="0.99" fill-rule="evenodd" clip-rule="evenodd" d="M9.21483 3.03516C11.8217 3.02604 14.4284 3.03516 17.0351 3.0625C19.7778 3.50863 21.6828 5.01254 22.75 7.57422C23.7169 10.6614 23.0151 13.2955 20.6445 15.4766C19.5864 16.3151 18.3833 16.8255 17.0351 17.0078C14.9935 17.0352 12.9519 17.0443 10.9101 17.0352C10.9101 17.6185 10.9101 18.2018 10.9101 18.7852C12.642 18.776 14.3738 18.7852 16.1055 18.8125C16.8701 19.1109 17.1709 19.6669 17.0078 20.4805C16.8529 20.9271 16.5521 21.2279 16.1055 21.3828C14.3738 21.4102 12.642 21.4193 10.9101 21.4102C10.9351 22.3255 10.9077 23.2369 10.8281 24.1445C10.3445 24.94 9.67918 25.1314 8.83202 24.7188C8.63558 24.559 8.48065 24.3676 8.36717 24.1445C8.28755 23.2369 8.2602 22.3255 8.28514 21.4102C7.36984 21.4351 6.45841 21.4078 5.55077 21.3281C4.75532 20.8445 4.56391 20.1792 4.97655 19.332C5.13629 19.1356 5.32769 18.9807 5.55077 18.8672C6.45841 18.7876 7.36984 18.7602 8.28514 18.7852C8.28514 18.2018 8.28514 17.6185 8.28514 17.0352C7.36984 17.0601 6.45841 17.0328 5.55077 16.9531C4.75532 16.4695 4.56391 15.8042 4.97655 14.957C5.13629 14.7606 5.32769 14.6057 5.55077 14.4922C6.45841 14.4126 7.36984 14.3852 8.28514 14.4102C8.27601 10.9283 8.28514 7.44658 8.31248 3.96484C8.47759 3.51726 8.77837 3.20737 9.21483 3.03516ZM10.9101 5.66016C12.6785 5.65102 14.4467 5.66016 16.2148 5.6875C18.2075 5.82176 19.5656 6.81527 20.289 8.66797C20.825 10.7795 20.2143 12.4657 18.457 13.7266C17.7672 14.1405 17.0198 14.3593 16.2148 14.3828C14.4467 14.4102 12.6785 14.4193 10.9101 14.4102C10.9101 11.4935 10.9101 8.57681 10.9101 5.66016Z" fill="#2563EB"/>
</svg>
